<svg version="1.1" preserveAspectRatio="none" xmlns="http://www.w3.org/2000/svg" width="500" height="500" viewBox="0 0 500 500"><rect width="100%" height="100%" fill="#FFFFFF" fill-opacity="1"/><svg viewBox="73.7023 243.8854 529.8041 123.2" width="333" height="77.43541433522316" x="83.5px" y="211.2823px" xmlns="http://www.w3.org/2000/svg" xmlns:xlink="http://www.w3.org/1999/xlink" preserveAspectRatio="none"><defs></defs><style>.aD6z1nYkhcolor {fill:#42A5FF;fill-opacity:1;}.aIptOCySncolors-3 {fill:#3CB9EF;fill-opacity:1;}.aIptOCySncolors-4 {fill:#83EDFF;fill-opacity:1;}.aIptOCySncolors-5 {fill:#AEDDFF;fill-opacity:1;}.aIptOCySncolors-6 {fill:#FFF1FF;fill-opacity:1;}.aIptOCySncolors-7 {fill:#FFE4CE;fill-opacity:1;}.icon1 {fill:#42A5FF;fill-opacity:1;}.icon2 {fill:#6DDDD0;fill-opacity:1;}.icon3 {fill:#FFD4D4;fill-opacity:1;}.icon3-str {stroke:#FFD4D4;stroke-opacity:1;}.text {fill:#42A5FF;fill-opacity:1;}</style><g opacity="1" transform="rotate(0 73.7023 243.8854)">
<svg width="124.3495" height="80" x="73.7023" y="243.8854" version="1.1" preserveAspectRatio="none" viewBox="20 48.49999237060547 160.10000610351562 103.00000762939453">
  <g transform="matrix(1 0 0 1 0 0)"><g><path d="M172 151.5l-49.3-84.4h8.4l49 84.4H172z" data-color="1" class="icon1"></path><path d="M144.2 141.4L94.9 57h8.4l49 84.4h-8.1z" data-color="1" class="icon1"></path><path d="M118.2 132.9L68.9 48.5h8.4l49 84.4h-8.1z" data-color="1" class="icon1"></path><path d="M81.8 151.5l49.3-84.4h-8.4l-49 84.4h8.1z" data-color="2" class="icon2"></path><path d="M54 141.4L103.3 57h-8.4l-49 84.4H54z" data-color="2" class="icon2"></path><path d="M28 132.9l49.3-84.4H69l-49 84.4h8z" data-color="2" class="icon2"></path></g></g>
</svg>
</g><g opacity="1" transform="rotate(0 80.3501 339.8854)">
<svg width="516.5084" height="27.2" x="80.3501" y="339.8854" version="1.1" preserveAspectRatio="none" viewBox="1.88 -29.68 714.76 37.64">
  <g transform="matrix(1 0 0 1 0 0)" class="text"><path id="id-6izo4zJp29" d="M12.28 0.24Q9.16 0.24 6.30-0.76Q3.44-1.76 1.88-3.40L1.88-3.40L3.04-5.68Q4.56-4.16 7.08-3.22Q9.60-2.28 12.28-2.28L12.28-2.28Q16.04-2.28 17.92-3.66Q19.80-5.04 19.80-7.24L19.80-7.24Q19.80-8.92 18.78-9.92Q17.76-10.92 16.28-11.46Q14.80-12 12.16-12.64L12.16-12.64Q9-13.44 7.12-14.18Q5.24-14.92 3.90-16.44Q2.56-17.96 2.56-20.56L2.56-20.56Q2.56-22.68 3.68-24.42Q4.80-26.16 7.12-27.20Q9.44-28.24 12.88-28.24L12.88-28.24Q15.28-28.24 17.58-27.58Q19.88-26.92 21.56-25.76L21.56-25.76L20.56-23.40Q18.80-24.56 16.80-25.14Q14.80-25.72 12.88-25.72L12.88-25.72Q9.20-25.72 7.34-24.30Q5.48-22.88 5.48-20.64L5.48-20.64Q5.48-18.96 6.50-17.94Q7.52-16.92 9.06-16.38Q10.60-15.84 13.20-15.20L13.20-15.20Q16.28-14.44 18.18-13.70Q20.08-12.96 21.40-11.46Q22.72-9.96 22.72-7.40L22.72-7.40Q22.72-5.28 21.58-3.54Q20.44-1.80 18.08-0.78Q15.72 0.24 12.28 0.24L12.28 0.24Z M43.40-21.20Q46.36-21.20 48.76-19.86Q51.16-18.52 52.52-16.08Q53.88-13.64 53.88-10.52L53.88-10.52Q53.88-7.36 52.52-4.92Q51.16-2.48 48.78-1.14Q46.40 0.20 43.40 0.20L43.40 0.20Q40.84 0.20 38.78-0.86Q36.72-1.92 35.40-3.96L35.40-3.96L35.40 7.76L32.56 7.76L32.56-21.04L35.28-21.04L35.28-16.88Q36.56-18.96 38.66-20.08Q40.76-21.20 43.40-21.20L43.40-21.20ZM43.20-2.32Q45.40-2.32 47.20-3.34Q49-4.36 50.02-6.24Q51.04-8.12 51.04-10.52L51.04-10.52Q51.04-12.92 50.02-14.78Q49-16.64 47.20-17.68Q45.40-18.72 43.20-18.72L43.20-18.72Q40.96-18.72 39.18-17.68Q37.40-16.64 36.38-14.78Q35.36-12.92 35.36-10.52L35.36-10.52Q35.36-8.12 36.38-6.24Q37.40-4.36 39.18-3.34Q40.96-2.32 43.20-2.32L43.20-2.32Z M72.28 0.20Q69.24 0.20 66.80-1.18Q64.36-2.56 62.96-5Q61.56-7.44 61.56-10.52L61.56-10.52Q61.56-13.60 62.96-16.04Q64.36-18.48 66.80-19.84Q69.24-21.20 72.28-21.20L72.28-21.20Q75.32-21.20 77.76-19.84Q80.20-18.48 81.58-16.04Q82.96-13.60 82.96-10.52L82.96-10.52Q82.96-7.44 81.58-5Q80.20-2.56 77.76-1.18Q75.32 0.20 72.28 0.20L72.28 0.20ZM72.28-2.32Q74.52-2.32 76.30-3.34Q78.08-4.36 79.08-6.24Q80.08-8.12 80.08-10.52L80.08-10.52Q80.08-12.92 79.08-14.80Q78.08-16.68 76.30-17.70Q74.52-18.72 72.28-18.72L72.28-18.72Q70.04-18.72 68.26-17.70Q66.48-16.68 65.46-14.80Q64.44-12.92 64.44-10.52L64.44-10.52Q64.44-8.12 65.46-6.24Q66.48-4.36 68.26-3.34Q70.04-2.32 72.28-2.32L72.28-2.32Z M102.84-3.32L103.84-1.28Q103.04-0.56 101.86-0.18Q100.68 0.20 99.40 0.20L99.40 0.20Q96.44 0.20 94.84-1.40Q93.24-3 93.24-5.92L93.24-5.92L93.24-18.64L89.48-18.64L89.48-21.04L93.24-21.04L93.24-25.64L96.08-25.64L96.08-21.04L102.48-21.04L102.48-18.64L96.08-18.64L96.08-6.08Q96.08-4.20 97.02-3.22Q97.96-2.24 99.72-2.24L99.72-2.24Q100.60-2.24 101.42-2.52Q102.24-2.80 102.84-3.32L102.84-3.32Z M113.00 0L113.00-29.68L115.84-29.68L115.84 0L113.00 0Z M146.12-10.52L146.08-9.64L128.48-9.64Q128.72-6.36 131-4.34Q133.28-2.32 136.76-2.32L136.76-2.32Q138.72-2.32 140.36-3.02Q142-3.72 143.20-5.08L143.20-5.08L144.80-3.24Q143.40-1.56 141.30-0.68Q139.20 0.20 136.68 0.20L136.68 0.20Q133.44 0.20 130.94-1.18Q128.44-2.56 127.04-5Q125.64-7.44 125.64-10.52L125.64-10.52Q125.64-13.60 126.98-16.04Q128.32-18.48 130.66-19.84Q133-21.20 135.92-21.20L135.92-21.20Q138.84-21.20 141.16-19.84Q143.48-18.48 144.80-16.06Q146.12-13.64 146.12-10.52L146.12-10.52ZM135.92-18.76Q132.88-18.76 130.82-16.82Q128.76-14.88 128.48-11.76L128.48-11.76L143.40-11.76Q143.12-14.88 141.06-16.82Q139-18.76 135.92-18.76L135.92-18.76Z M161.56 0.20Q159 0.20 156.66-0.54Q154.32-1.28 153-2.40L153-2.40L154.28-4.64Q155.60-3.60 157.60-2.94Q159.60-2.28 161.76-2.28L161.76-2.28Q164.64-2.28 166.02-3.18Q167.40-4.08 167.40-5.72L167.40-5.72Q167.40-6.88 166.64-7.54Q165.88-8.20 164.72-8.54Q163.56-8.88 161.64-9.20L161.64-9.20Q159.08-9.68 157.52-10.18Q155.96-10.68 154.86-11.88Q153.76-13.08 153.76-15.20L153.76-15.20Q153.76-17.84 155.96-19.52Q158.16-21.20 162.08-21.20L162.08-21.20Q164.12-21.20 166.16-20.66Q168.20-20.12 169.52-19.24L169.52-19.24L168.28-16.96Q165.68-18.76 162.08-18.76L162.08-18.76Q159.36-18.76 157.98-17.80Q156.60-16.84 156.60-15.28L156.60-15.28Q156.60-14.08 157.38-13.36Q158.16-12.64 159.32-12.30Q160.48-11.96 162.52-11.60L162.52-11.60Q165.04-11.12 166.56-10.64Q168.08-10.16 169.16-9Q170.24-7.84 170.24-5.80L170.24-5.80Q170.24-3.04 167.94-1.42Q165.64 0.20 161.56 0.20L161.56 0.20Z M185.12 0.20Q182.56 0.20 180.22-0.54Q177.88-1.28 176.56-2.40L176.56-2.40L177.84-4.64Q179.16-3.60 181.16-2.94Q183.16-2.28 185.32-2.28L185.32-2.28Q188.20-2.28 189.58-3.18Q190.96-4.08 190.96-5.72L190.96-5.72Q190.96-6.88 190.20-7.54Q189.44-8.20 188.28-8.54Q187.12-8.88 185.20-9.20L185.20-9.20Q182.64-9.68 181.08-10.18Q179.52-10.68 178.42-11.88Q177.32-13.08 177.32-15.20L177.32-15.20Q177.32-17.84 179.52-19.52Q181.72-21.20 185.64-21.20L185.64-21.20Q187.68-21.20 189.72-20.66Q191.76-20.12 193.08-19.24L193.08-19.24L191.84-16.96Q189.24-18.76 185.64-18.76L185.64-18.76Q182.92-18.76 181.54-17.80Q180.16-16.84 180.16-15.28L180.16-15.28Q180.16-14.08 180.94-13.36Q181.72-12.64 182.88-12.30Q184.04-11.96 186.08-11.60L186.08-11.60Q188.60-11.12 190.12-10.64Q191.64-10.16 192.72-9Q193.80-7.84 193.80-5.80L193.80-5.80Q193.80-3.04 191.50-1.42Q189.20 0.20 185.12 0.20L185.12 0.20Z M228.24-21.20Q232.20-21.20 234.54-18.90Q236.88-16.60 236.88-12.20L236.88-12.20L236.88 0L234.04 0L234.04-11.92Q234.04-15.20 232.40-16.92Q230.76-18.64 227.72-18.64L227.72-18.64Q224.32-18.64 222.34-16.62Q220.36-14.60 220.36-11.04L220.36-11.04L220.36 0L217.52 0L217.52-29.68L220.36-29.68L220.36-17.36Q221.52-19.20 223.56-20.20Q225.60-21.20 228.24-21.20L228.24-21.20Z M257.28 0.20Q254.24 0.20 251.80-1.18Q249.36-2.56 247.96-5Q246.56-7.44 246.56-10.52L246.56-10.52Q246.56-13.60 247.96-16.04Q249.36-18.48 251.80-19.84Q254.24-21.20 257.28-21.20L257.28-21.20Q260.32-21.20 262.76-19.84Q265.20-18.48 266.58-16.04Q267.96-13.60 267.96-10.52L267.96-10.52Q267.96-7.44 266.58-5Q265.20-2.56 262.76-1.18Q260.32 0.20 257.28 0.20L257.28 0.20ZM257.28-2.32Q259.52-2.32 261.30-3.34Q263.08-4.36 264.08-6.24Q265.08-8.12 265.08-10.52L265.08-10.52Q265.08-12.92 264.08-14.80Q263.08-16.68 261.30-17.70Q259.52-18.72 257.28-18.72L257.28-18.72Q255.04-18.72 253.26-17.70Q251.48-16.68 250.46-14.80Q249.44-12.92 249.44-10.52L249.44-10.52Q249.44-8.12 250.46-6.24Q251.48-4.36 253.26-3.34Q255.04-2.32 257.28-2.32L257.28-2.32Z M304-21.20Q307.96-21.20 310.22-18.92Q312.48-16.64 312.48-12.20L312.48-12.20L312.48 0L309.64 0L309.64-11.92Q309.64-15.20 308.06-16.92Q306.48-18.64 303.60-18.64L303.60-18.64Q300.32-18.64 298.44-16.62Q296.56-14.60 296.56-11.04L296.56-11.04L296.56 0L293.72 0L293.72-11.92Q293.72-15.20 292.14-16.92Q290.56-18.64 287.64-18.64L287.64-18.64Q284.40-18.64 282.50-16.62Q280.60-14.60 280.60-11.04L280.60-11.04L280.60 0L277.76 0L277.76-21.04L280.48-21.04L280.48-17.20Q281.60-19.12 283.60-20.16Q285.60-21.20 288.20-21.20L288.20-21.20Q290.84-21.20 292.78-20.08Q294.72-18.96 295.68-16.76L295.68-16.76Q296.84-18.84 299.02-20.02Q301.20-21.20 304-21.20L304-21.20Z M342.64-10.52L342.60-9.64L325-9.64Q325.24-6.36 327.52-4.34Q329.80-2.32 333.28-2.32L333.28-2.32Q335.24-2.32 336.88-3.02Q338.52-3.72 339.72-5.08L339.72-5.08L341.32-3.24Q339.92-1.56 337.82-0.68Q335.72 0.20 333.20 0.20L333.20 0.20Q329.96 0.20 327.46-1.18Q324.96-2.56 323.56-5Q322.16-7.44 322.16-10.52L322.16-10.52Q322.16-13.60 323.50-16.04Q324.84-18.48 327.18-19.84Q329.52-21.20 332.44-21.20L332.44-21.20Q335.36-21.20 337.68-19.84Q340-18.48 341.32-16.06Q342.64-13.64 342.64-10.52L342.64-10.52ZM332.44-18.76Q329.40-18.76 327.34-16.82Q325.28-14.88 325-11.76L325-11.76L339.92-11.76Q339.64-14.88 337.58-16.82Q335.52-18.76 332.44-18.76L332.44-18.76Z M358.08 0.20Q355.52 0.20 353.18-0.54Q350.84-1.28 349.52-2.40L349.52-2.40L350.80-4.64Q352.12-3.60 354.12-2.94Q356.12-2.28 358.28-2.28L358.28-2.28Q361.16-2.28 362.54-3.18Q363.92-4.08 363.92-5.72L363.92-5.72Q363.92-6.88 363.16-7.54Q362.40-8.20 361.24-8.54Q360.08-8.88 358.16-9.20L358.16-9.20Q355.60-9.68 354.04-10.18Q352.48-10.68 351.38-11.88Q350.28-13.08 350.28-15.20L350.28-15.20Q350.28-17.84 352.48-19.52Q354.68-21.20 358.60-21.20L358.60-21.20Q360.64-21.20 362.68-20.66Q364.72-20.12 366.04-19.24L366.04-19.24L364.80-16.96Q362.20-18.76 358.60-18.76L358.60-18.76Q355.88-18.76 354.50-17.80Q353.12-16.84 353.12-15.28L353.12-15.28Q353.12-14.08 353.90-13.36Q354.68-12.64 355.84-12.30Q357-11.96 359.04-11.60L359.04-11.60Q361.56-11.12 363.08-10.64Q364.60-10.16 365.68-9Q366.76-7.84 366.76-5.80L366.76-5.80Q366.76-3.04 364.46-1.42Q362.16 0.20 358.08 0.20L358.08 0.20Z M376.32-4.16Q377.24-4.16 377.84-3.54Q378.44-2.92 378.44-2L378.44-2Q378.44-1.52 378.30-0.96Q378.16-0.40 377.88 0.32L377.88 0.32L376.20 5.84L374.28 5.84L375.64 0.04Q375-0.16 374.60-0.70Q374.20-1.24 374.20-2L374.20-2Q374.20-2.92 374.80-3.54Q375.40-4.16 376.32-4.16L376.32-4.16Z M413.68-21.20Q417.64-21.20 419.98-18.90Q422.32-16.60 422.32-12.20L422.32-12.20L422.32 0L419.48 0L419.48-11.92Q419.48-15.20 417.84-16.92Q416.20-18.64 413.16-18.64L413.16-18.64Q409.76-18.64 407.78-16.62Q405.80-14.60 405.80-11.04L405.80-11.04L405.80 0L402.96 0L402.96-29.68L405.80-29.68L405.80-17.36Q406.96-19.20 409.00-20.20Q411.04-21.20 413.68-21.20L413.68-21.20Z M441.40-21.20Q445.52-21.20 447.72-19.14Q449.92-17.08 449.92-13.04L449.92-13.04L449.92 0L447.20 0L447.20-3.28Q446.24-1.64 444.38-0.72Q442.52 0.20 439.96 0.20L439.96 0.20Q436.44 0.20 434.36-1.48Q432.28-3.16 432.28-5.92L432.28-5.92Q432.28-8.60 434.22-10.24Q436.16-11.88 440.40-11.88L440.40-11.88L447.08-11.88L447.08-13.16Q447.08-15.88 445.56-17.30Q444.04-18.72 441.12-18.72L441.12-18.72Q439.12-18.72 437.28-18.06Q435.44-17.40 434.12-16.24L434.12-16.24L432.84-18.36Q434.44-19.72 436.68-20.46Q438.92-21.20 441.40-21.20L441.40-21.20ZM440.40-2.04Q442.80-2.04 444.52-3.14Q446.24-4.24 447.08-6.32L447.08-6.32L447.08-9.76L440.48-9.76Q435.08-9.76 435.08-6L435.08-6Q435.08-4.16 436.48-3.10Q437.88-2.04 440.40-2.04L440.40-2.04Z M472.48-21.20Q475.44-21.20 477.84-19.86Q480.24-18.52 481.60-16.08Q482.96-13.64 482.96-10.52L482.96-10.52Q482.96-7.36 481.60-4.92Q480.24-2.48 477.86-1.14Q475.48 0.20 472.48 0.20L472.48 0.20Q469.92 0.20 467.86-0.86Q465.80-1.92 464.48-3.96L464.48-3.96L464.48 7.76L461.64 7.76L461.64-21.04L464.36-21.04L464.36-16.88Q465.64-18.96 467.74-20.08Q469.84-21.20 472.48-21.20L472.48-21.20ZM472.28-2.32Q474.48-2.32 476.28-3.34Q478.08-4.36 479.10-6.24Q480.12-8.12 480.12-10.52L480.12-10.52Q480.12-12.92 479.10-14.78Q478.08-16.64 476.28-17.68Q474.48-18.72 472.28-18.72L472.28-18.72Q470.04-18.72 468.26-17.68Q466.48-16.64 465.46-14.78Q464.44-12.92 464.44-10.52L464.44-10.52Q464.44-8.12 465.46-6.24Q466.48-4.36 468.26-3.34Q470.04-2.32 472.28-2.32L472.28-2.32Z M503.60-21.20Q506.56-21.20 508.96-19.86Q511.36-18.52 512.72-16.08Q514.08-13.64 514.08-10.52L514.08-10.52Q514.08-7.36 512.72-4.92Q511.36-2.48 508.98-1.14Q506.60 0.20 503.60 0.20L503.60 0.20Q501.04 0.20 498.98-0.86Q496.92-1.92 495.60-3.96L495.60-3.96L495.60 7.76L492.76 7.76L492.76-21.04L495.48-21.04L495.48-16.88Q496.76-18.96 498.86-20.08Q500.96-21.20 503.60-21.20L503.60-21.20ZM503.40-2.32Q505.60-2.32 507.40-3.34Q509.20-4.36 510.22-6.24Q511.24-8.12 511.24-10.52L511.24-10.52Q511.24-12.92 510.22-14.78Q509.20-16.64 507.40-17.68Q505.60-18.72 503.40-18.72L503.40-18.72Q501.16-18.72 499.38-17.68Q497.60-16.64 496.58-14.78Q495.56-12.92 495.56-10.52L495.56-10.52Q495.56-8.12 496.58-6.24Q497.60-4.36 499.38-3.34Q501.16-2.32 503.40-2.32L503.40-2.32Z M538.16-21.04L540.96-21.04L530.44 2.52Q529.16 5.48 527.48 6.72Q525.80 7.96 523.44 7.96L523.44 7.96Q521.92 7.96 520.60 7.48Q519.28 7 518.32 6.04L518.32 6.04L519.64 3.92Q521.24 5.52 523.48 5.52L523.48 5.52Q524.92 5.52 525.94 4.72Q526.96 3.92 527.84 2L527.84 2L528.76-0.04L519.36-21.04L522.32-21.04L530.24-3.16L538.16-21.04Z M574.16-21.20Q578.12-21.20 580.46-18.90Q582.80-16.60 582.80-12.20L582.80-12.20L582.80 0L579.96 0L579.96-11.92Q579.96-15.20 578.32-16.92Q576.68-18.64 573.64-18.64L573.64-18.64Q570.24-18.64 568.26-16.62Q566.28-14.60 566.28-11.04L566.28-11.04L566.28 0L563.44 0L563.44-29.68L566.28-29.68L566.28-17.36Q567.44-19.20 569.48-20.20Q571.52-21.20 574.16-21.20L574.16-21.20Z M612.96-10.52L612.92-9.64L595.32-9.64Q595.56-6.36 597.84-4.34Q600.12-2.32 603.60-2.32L603.60-2.32Q605.56-2.32 607.20-3.02Q608.84-3.72 610.04-5.08L610.04-5.08L611.64-3.24Q610.24-1.56 608.14-0.68Q606.04 0.20 603.52 0.20L603.52 0.20Q600.28 0.20 597.78-1.18Q595.28-2.56 593.88-5Q592.48-7.44 592.48-10.52L592.48-10.52Q592.48-13.60 593.82-16.04Q595.16-18.48 597.50-19.84Q599.84-21.20 602.76-21.20L602.76-21.20Q605.68-21.20 608.00-19.84Q610.32-18.48 611.64-16.06Q612.96-13.64 612.96-10.52L612.96-10.52ZM602.76-18.76Q599.72-18.76 597.66-16.82Q595.60-14.88 595.32-11.76L595.32-11.76L610.24-11.76Q609.96-14.88 607.90-16.82Q605.84-18.76 602.76-18.76L602.76-18.76Z M629.52-21.20Q633.64-21.20 635.84-19.14Q638.04-17.08 638.04-13.04L638.04-13.04L638.04 0L635.32 0L635.32-3.28Q634.36-1.64 632.50-0.72Q630.64 0.20 628.08 0.20L628.08 0.20Q624.56 0.20 622.48-1.48Q620.40-3.16 620.40-5.92L620.40-5.92Q620.40-8.60 622.34-10.24Q624.28-11.88 628.52-11.88L628.52-11.88L635.20-11.88L635.20-13.16Q635.20-15.88 633.68-17.30Q632.16-18.72 629.24-18.72L629.24-18.72Q627.24-18.72 625.40-18.06Q623.56-17.40 622.24-16.24L622.24-16.24L620.96-18.36Q622.56-19.72 624.80-20.46Q627.04-21.20 629.52-21.20L629.52-21.20ZM628.52-2.04Q630.92-2.04 632.64-3.14Q634.36-4.24 635.20-6.32L635.20-6.32L635.20-9.76L628.60-9.76Q623.20-9.76 623.20-6L623.20-6Q623.20-4.16 624.60-3.10Q626-2.04 628.52-2.04L628.52-2.04Z M652.48-16.92Q653.48-19.04 655.46-20.12Q657.44-21.20 660.36-21.20L660.36-21.20L660.36-18.44L659.68-18.48Q656.36-18.48 654.48-16.44Q652.60-14.40 652.60-10.72L652.60-10.72L652.60 0L649.76 0L649.76-21.04L652.48-21.04L652.48-16.92Z M680.48-3.32L681.48-1.28Q680.68-0.56 679.50-0.18Q678.32 0.20 677.04 0.20L677.04 0.20Q674.08 0.20 672.48-1.40Q670.88-3 670.88-5.92L670.88-5.92L670.88-18.64L667.12-18.64L667.12-21.04L670.88-21.04L670.88-25.64L673.72-25.64L673.72-21.04L680.12-21.04L680.12-18.64L673.72-18.64L673.72-6.08Q673.72-4.20 674.66-3.22Q675.60-2.24 677.36-2.24L677.36-2.24Q678.24-2.24 679.06-2.52Q679.88-2.80 680.48-3.32L680.48-3.32Z M696.28 0.20Q693.72 0.20 691.38-0.54Q689.04-1.28 687.72-2.40L687.72-2.40L689.00-4.64Q690.32-3.60 692.32-2.94Q694.32-2.28 696.48-2.28L696.48-2.28Q699.36-2.28 700.74-3.18Q702.12-4.08 702.12-5.72L702.12-5.72Q702.12-6.88 701.36-7.54Q700.60-8.20 699.44-8.54Q698.28-8.88 696.36-9.20L696.36-9.20Q693.80-9.68 692.24-10.18Q690.68-10.68 689.58-11.88Q688.48-13.08 688.48-15.20L688.48-15.20Q688.48-17.84 690.68-19.52Q692.88-21.20 696.80-21.20L696.80-21.20Q698.84-21.20 700.88-20.66Q702.92-20.12 704.24-19.24L704.24-19.24L703.00-16.96Q700.40-18.76 696.80-18.76L696.80-18.76Q694.08-18.76 692.70-17.80Q691.32-16.84 691.32-15.28L691.32-15.28Q691.32-14.08 692.10-13.36Q692.88-12.64 694.04-12.30Q695.20-11.96 697.24-11.60L697.24-11.60Q699.76-11.12 701.28-10.64Q702.80-10.16 703.88-9Q704.96-7.84 704.96-5.80L704.96-5.80Q704.96-3.04 702.66-1.42Q700.36 0.20 696.28 0.20L696.28 0.20Z M714.48 0.20Q713.60 0.20 712.98-0.44Q712.36-1.08 712.36-2L712.36-2Q712.36-2.92 712.98-3.54Q713.60-4.16 714.48-4.16L714.48-4.16Q715.36-4.16 716-3.54Q716.64-2.92 716.64-2L716.64-2Q716.64-1.08 716-0.44Q715.36 0.20 714.48 0.20L714.48 0.20Z"/></g>
</svg>
</g><g opacity="1" transform="rotate(0 218.0518 243.8854)">
<svg width="385.4546" height="80" x="218.0518" y="243.8854" version="1.1" preserveAspectRatio="none" viewBox="1.5039 -28.1055 160.7031 37.2071">
  <g transform="matrix(1 0 0 1 0 0)" class="aD6z1nYkhcolor"><path id="id-D6z1nYkh9" d="M1.50-9.79L1.50-9.79Q1.50-12.60 2.19-14.63Q2.87-16.66 4.10-17.97Q5.33-19.28 7.04-19.89Q8.75-20.51 10.80-20.51L10.80-20.51Q12.70-20.51 14.19-19.87Q15.68-19.24 16.72-18.09Q17.75-16.93 18.30-15.33Q18.85-13.73 18.85-11.80L18.85-11.80Q18.85-11.13 18.79-10.57Q18.73-10 18.65-9.59L18.65-9.59Q18.57-9.10 18.48-8.71L18.48-8.71L5.66-8.77Q5.68-7.03 6.04-5.89Q6.39-4.75 7.08-4.08Q7.77-3.42 8.83-3.15Q9.88-2.89 11.33-2.89L11.33-2.89Q12.56-2.89 13.54-3.05Q14.51-3.20 15.20-3.42L15.20-3.42Q15.98-3.65 16.60-3.96L16.60-3.96Q16.89-3.28 17.06-2.70Q17.23-2.11 17.30-1.68L17.30-1.68Q17.38-1.17 17.42-0.78L17.42-0.78Q16.78-0.45 15.86-0.20L15.86-0.20Q15.08 0.02 13.95 0.21Q12.81 0.39 11.33 0.39L11.33 0.39Q8.98 0.39 7.16-0.14Q5.33-0.66 4.07-1.87Q2.81-3.07 2.16-5.01Q1.50-6.95 1.50-9.79ZM5.72-11.62L14.67-11.62L14.67-12.29Q14.67-13.52 14.37-14.46Q14.06-15.41 13.54-16.05Q13.01-16.70 12.29-17.03Q11.56-17.36 10.72-17.36L10.72-17.36Q9.49-17.36 8.55-17.04Q7.62-16.72 6.98-16.03Q6.35-15.33 6.04-14.24Q5.72-13.14 5.72-11.62L5.72-11.62Z M22.05-0.90L22.05-0.90Q22.05-1.35 22.13-1.88L22.13-1.88Q22.19-2.32 22.31-2.90Q22.44-3.48 22.70-4.10L22.70-4.10Q23.55-3.77 24.49-3.52L24.49-3.52Q25.29-3.30 26.23-3.12Q27.17-2.93 28.09-2.93L28.09-2.93Q28.91-2.93 29.61-2.99Q30.31-3.05 30.83-3.31Q31.35-3.57 31.64-4.11Q31.93-4.65 31.93-5.61L31.93-5.61Q31.93-6.76 31.22-7.42Q30.51-8.09 28.75-8.42L28.75-8.42Q26.93-8.77 25.69-9.36Q24.45-9.94 23.68-10.71Q22.91-11.48 22.57-12.44Q22.23-13.40 22.23-14.49L22.23-14.49Q22.23-16.13 22.75-17.29Q23.28-18.44 24.29-19.15Q25.29-19.86 26.79-20.19Q28.28-20.51 30.21-20.51L30.21-20.51Q31.56-20.51 32.61-20.32Q33.65-20.14 34.36-19.92L34.36-19.92Q35.18-19.67 35.78-19.34L35.78-19.34Q35.72-18.91 35.57-18.40L35.57-18.40Q35.43-17.97 35.21-17.42Q34.98-16.88 34.61-16.31L34.61-16.31Q34.08-16.62 33.40-16.86L33.40-16.86Q32.81-17.07 31.99-17.24Q31.17-17.40 30.12-17.40L30.12-17.40Q29.30-17.40 28.60-17.32Q27.91-17.25 27.41-16.97Q26.91-16.70 26.64-16.14Q26.37-15.59 26.37-14.63L26.37-14.63Q26.37-14.16 26.49-13.78Q26.62-13.40 27.00-13.09Q27.38-12.77 28.08-12.51Q28.77-12.25 29.92-11.99L29.92-11.99Q31.72-11.60 32.92-11.09Q34.12-10.59 34.83-9.86Q35.55-9.14 35.85-8.17Q36.15-7.21 36.15-5.88L36.15-5.88Q36.15-4.45 35.70-3.30Q35.25-2.15 34.30-1.33Q33.34-0.51 31.84-0.06Q30.33 0.39 28.20 0.39L28.20 0.39Q26.84 0.39 25.71 0.20Q24.59 0 23.77-0.25L23.77-0.25Q22.81-0.53 22.05-0.90Z M39.41-5.70L39.41-5.70Q39.41-7.32 39.88-8.46Q40.35-9.59 41.26-10.31Q42.17-11.04 43.47-11.40Q44.77-11.76 46.45-11.86L46.45-11.86L50.80-12.09L50.80-13.65Q50.80-14.71 50.62-15.39Q50.43-16.07 50-16.48Q49.57-16.89 48.86-17.06Q48.14-17.23 47.09-17.23L47.09-17.23Q46.04-17.23 45.09-16.99Q44.14-16.76 43.44-16.48L43.44-16.48Q42.60-16.15 41.89-15.74L41.89-15.74Q41.46-16.35 41.21-16.90Q40.96-17.46 40.82-17.91L40.82-17.91Q40.64-18.42 40.59-18.89L40.59-18.89Q41.52-19.36 42.60-19.71L42.60-19.71Q43.54-20.02 44.76-20.27Q45.98-20.53 47.32-20.53L47.32-20.53Q49.55-20.53 51.02-20.14Q52.48-19.75 53.35-18.96Q54.22-18.16 54.56-16.96Q54.90-15.76 54.90-14.12L54.90-14.12L54.90-3.22L56.54-1.23L56.54 0L52.93 0L51.43-1.74L50.72-1.74Q50.63-1.64 50.21-1.30Q49.79-0.96 49.13-0.58Q48.48-0.20 47.65 0.10Q46.82 0.39 45.88 0.39L45.88 0.39Q44.41 0.39 43.22-0.05Q42.03-0.49 41.18-1.30Q40.33-2.11 39.87-3.23Q39.41-4.36 39.41-5.70ZM43.67-6.05L43.67-6.05Q43.67-5.16 43.93-4.56Q44.18-3.96 44.64-3.61Q45.10-3.26 45.75-3.13Q46.41-2.99 47.21-2.99L47.21-2.99Q47.95-2.99 48.60-3.17Q49.26-3.36 49.75-3.59L49.75-3.59Q50.31-3.85 50.80-4.20L50.80-4.20L50.80-9.45L46.88-9.20Q45.96-9.14 45.34-8.89Q44.73-8.63 44.36-8.22Q43.98-7.81 43.83-7.26Q43.67-6.70 43.67-6.05Z M64.02 0L58.03-19.96L62.42-19.96L66.23-5.37L67.07-1.46L67.93-5.37L71.86-19.96L76.39-19.96L67.50 9.10L63.26 9.10L66.52 0L64.02 0Z M78.18-10.02L78.18-10.02Q78.18-12.60 78.81-14.56Q79.43-16.52 80.63-17.85Q81.84-19.18 83.58-19.85Q85.33-20.53 87.58-20.53L87.58-20.53Q88.40-20.53 89.24-20.37Q90.08-20.21 90.76-20.04L90.76-20.04Q91.54-19.82 92.29-19.55L92.29-19.55Q92.23-19.00 92.11-18.42L92.11-18.42Q92.01-17.91 91.83-17.31Q91.64-16.72 91.37-16.15L91.37-16.15Q90.84-16.37 90.23-16.56L90.23-16.56Q89.71-16.72 89.02-16.86Q88.34-16.99 87.58-16.99L87.58-16.99Q86.27-16.99 85.30-16.51Q84.34-16.04 83.69-15.13Q83.05-14.22 82.73-12.93Q82.42-11.64 82.42-10.04L82.42-10.04Q82.42-6.52 83.78-4.71Q85.14-2.89 87.77-2.89L87.77-2.89Q88.55-2.89 89.26-3.02Q89.96-3.14 90.53-3.30L90.53-3.30Q91.17-3.50 91.74-3.73L91.74-3.73Q91.93-3.30 92.09-2.79L92.09-2.79Q92.23-2.34 92.33-1.77Q92.44-1.19 92.42-0.53L92.42-0.53Q91.70-0.27 90.92-0.06L90.92-0.06Q90.25 0.12 89.42 0.25Q88.59 0.39 87.77 0.39L87.77 0.39Q83.18 0.39 80.68-2.23Q78.18-4.84 78.18-10.02Z M95.82-3.36L95.82-28.11L99.86-28.11L99.86-3.28L101.02-2.46L101.02 0L99.90 0L99.86-0.04L99.86 0Q97.93 0 96.88-0.78Q95.82-1.56 95.82-3.36L95.82-3.36Z M104.34-9.79L104.34-9.79Q104.34-12.60 105.02-14.63Q105.70-16.66 106.93-17.97Q108.16-19.28 109.87-19.89Q111.58-20.51 113.63-20.51L113.63-20.51Q115.53-20.51 117.02-19.87Q118.52-19.24 119.55-18.09Q120.59-16.93 121.13-15.33Q121.68-13.73 121.68-11.80L121.68-11.80Q121.68-11.13 121.62-10.57Q121.56-10 121.48-9.59L121.48-9.59Q121.41-9.10 121.31-8.71L121.31-8.71L108.50-8.77Q108.52-7.03 108.87-5.89Q109.22-4.75 109.91-4.08Q110.61-3.42 111.66-3.15Q112.71-2.89 114.16-2.89L114.16-2.89Q115.39-2.89 116.37-3.05Q117.34-3.20 118.03-3.42L118.03-3.42Q118.81-3.65 119.43-3.96L119.43-3.96Q119.73-3.28 119.89-2.70Q120.06-2.11 120.14-1.68L120.14-1.68Q120.21-1.17 120.25-0.78L120.25-0.78Q119.61-0.45 118.69-0.20L118.69-0.20Q117.91 0.02 116.78 0.21Q115.64 0.39 114.16 0.39L114.16 0.39Q111.82 0.39 109.99-0.14Q108.16-0.66 106.90-1.87Q105.64-3.07 104.99-5.01Q104.34-6.95 104.34-9.79ZM108.55-11.62L117.50-11.62L117.50-12.29Q117.50-13.52 117.20-14.46Q116.89-15.41 116.37-16.05Q115.84-16.70 115.12-17.03Q114.39-17.36 113.55-17.36L113.55-17.36Q112.32-17.36 111.39-17.04Q110.45-16.72 109.81-16.03Q109.18-15.33 108.87-14.24Q108.55-13.14 108.55-11.62L108.55-11.62Z M124.45-5.70L124.45-5.70Q124.45-7.32 124.92-8.46Q125.39-9.59 126.30-10.31Q127.21-11.04 128.51-11.40Q129.80-11.76 131.48-11.86L131.48-11.86L135.84-12.09L135.84-13.65Q135.84-14.71 135.65-15.39Q135.47-16.07 135.04-16.48Q134.61-16.89 133.90-17.06Q133.18-17.23 132.13-17.23L132.13-17.23Q131.07-17.23 130.13-16.99Q129.18-16.76 128.48-16.48L128.48-16.48Q127.64-16.15 126.93-15.74L126.93-15.74Q126.50-16.35 126.25-16.90Q126.00-17.46 125.86-17.91L125.86-17.91Q125.68-18.42 125.63-18.89L125.63-18.89Q126.56-19.36 127.64-19.71L127.64-19.71Q128.57-20.02 129.79-20.27Q131.02-20.53 132.36-20.53L132.36-20.53Q134.59-20.53 136.05-20.14Q137.52-19.75 138.39-18.96Q139.26-18.16 139.60-16.96Q139.94-15.76 139.94-14.12L139.94-14.12L139.94-3.22L141.58-1.23L141.58 0L137.97 0L136.46-1.74L135.76-1.74Q135.66-1.64 135.24-1.30Q134.82-0.96 134.17-0.58Q133.52-0.20 132.69 0.10Q131.86 0.39 130.92 0.39L130.92 0.39Q129.45 0.39 128.26-0.05Q127.07-0.49 126.22-1.30Q125.37-2.11 124.91-3.23Q124.45-4.36 124.45-5.70ZM128.71-6.05L128.71-6.05Q128.71-5.16 128.96-4.56Q129.22-3.96 129.68-3.61Q130.14-3.26 130.79-3.13Q131.45-2.99 132.25-2.99L132.25-2.99Q132.99-2.99 133.64-3.17Q134.30-3.36 134.79-3.59L134.79-3.59Q135.35-3.85 135.84-4.20L135.84-4.20L135.84-9.45L131.91-9.20Q131.00-9.14 130.38-8.89Q129.77-8.63 129.39-8.22Q129.02-7.81 128.87-7.26Q128.71-6.70 128.71-6.05Z M145.55 0L145.55-16.39L144.00-17.97L144.00-20.18L147.60-20.18L149.28-18.65L149.84-18.77Q149.98-18.89 150.48-19.18Q150.98-19.47 151.71-19.77Q152.44-20.06 153.38-20.28Q154.32-20.51 155.35-20.51L155.35-20.51Q156.99-20.51 158.27-20.02Q159.55-19.53 160.43-18.62Q161.31-17.71 161.76-16.45Q162.21-15.18 162.21-13.59L162.21-13.59L162.21 0L158.01 0L158.01-13.18Q158.01-15.31 157.12-16.32Q156.23-17.32 154.30-17.32L154.30-17.32Q153.34-17.32 152.52-17.16Q151.70-16.99 151.07-16.78L151.07-16.78Q150.35-16.54 149.73-16.23L149.73-16.23L149.73 0L145.55 0Z"/></g>
</svg>
</g></svg></svg>